<svg width="40" height="40" viewBox="0 0 40 40" fill="none" xmlns="http://www.w3.org/2000/svg">
<mask id="mask0_126_31399" style="mask-type:alpha" maskUnits="userSpaceOnUse" x="0" y="0" width="40" height="40">
<rect width="40" height="40" rx="8" fill="#F3F7F9"/>
</mask>
<g mask="url(#mask0_126_31399)">
<rect width="40" height="40" fill="#194468"/>
</g>
<path d="M21.6246 9.72202C20.5903 9.26235 19.4097 9.26235 18.3754 9.72202L13.3754 11.9442C11.9309 12.5863 11 14.0187 11 15.5995V19C11 24.2086 14.3821 29.1002 19.0634 30.7237C19.6697 30.934 20.3303 30.934 20.9366 30.7237C25.6179 29.1002 29 24.2086 29 19V15.5995C29 14.0187 28.0691 12.5863 26.6246 11.9442L21.6246 9.72202ZM20 12.9C20.5933 12.9 21.1734 13.0759 21.6667 13.4056C22.1601 13.7352 22.5446 14.2038 22.7716 14.7519C22.9987 15.3001 23.0581 15.9033 22.9424 16.4853C22.8266 17.0672 22.5409 17.6018 22.1213 18.0213C21.7018 18.4409 21.1672 18.7266 20.5853 18.8424C20.0033 18.9581 19.4001 18.8987 18.8519 18.6716C18.3038 18.4446 17.8352 18.0601 17.5056 17.5667C17.1759 17.0734 17 16.4933 17 15.9C17 15.1044 17.3161 14.3413 17.8787 13.7787C18.4413 13.2161 19.2044 12.9 20 12.9ZM20 20.8C21.5957 20.8 24.4646 21.4939 25.5592 22.7851C26.0678 23.3851 25.7904 24.2509 25.2525 24.8247C24.7195 25.3931 24.096 25.8732 23.4047 26.2442C22.3578 26.806 21.1881 27.1 20 27.1C18.8119 27.1 17.6422 26.806 16.5953 26.2442C15.904 25.8732 15.2805 25.3931 14.7475 24.8246C14.2096 24.2509 13.9322 23.3851 14.4408 22.7851C15.5354 21.4939 18.4043 20.8 20 20.8Z" fill="#37A6D0"/>
</svg>
