<svg xmlns="http://www.w3.org/2000/svg" width="21" height="21" viewBox="0 0 21 21" fill="none">
<path opacity="0.2" fill-rule="evenodd" clip-rule="evenodd" d="M10.5 19.25C15.3325 19.25 19.25 15.3325 19.25 10.5C19.25 5.66751 15.3325 1.75 10.5 1.75C5.66751 1.75 1.75 5.66751 1.75 10.5C1.75 15.3325 5.66751 19.25 10.5 19.25Z" fill="#148EF8"/>
<path d="M14.6728 6.84047C15.0026 6.48719 15.5563 6.4681 15.9095 6.79783C16.2628 7.12756 16.2819 7.68125 15.9522 8.03453L9.82719 14.597C9.50728 14.9398 8.97406 14.9695 8.61807 14.6644L5.55557 12.0394C5.18866 11.7249 5.14617 11.1725 5.46067 10.8056C5.77516 10.4387 6.32755 10.3962 6.69446 10.7107L9.12013 12.7898L14.6728 6.84047Z" fill="#148EF8"/>
</svg>