<svg width="14" height="14" viewBox="0 0 14 14" fill="none" xmlns="http://www.w3.org/2000/svg">
<path fill-rule="evenodd" clip-rule="evenodd" d="M12.0013 6.99845H13.668C13.668 10.6804 10.6832 13.6651 7.0013 13.6651C3.3194 13.6651 0.334636 10.6804 0.334636 6.99845C0.334636 3.31656 3.3194 0.331787 7.0013 0.331787C8.42523 0.331787 9.77594 0.781573 10.8893 1.58187L11.9659 0.828023C12.3024 0.592355 12.7638 0.840704 12.7525 1.25142L12.6562 4.73211C12.647 5.06676 12.3178 5.29796 11.9999 5.19315L8.68547 4.10065C8.29459 3.9718 8.21807 3.45227 8.55521 3.2162L9.41181 2.6164C8.68712 2.21723 7.86248 1.99845 7.0013 1.99845C4.23988 1.99845 2.0013 4.23703 2.0013 6.99845C2.0013 9.75988 4.23988 11.9985 7.0013 11.9985C9.76273 11.9985 12.0013 9.75988 12.0013 6.99845Z" fill="#148EF8">
<animateTransform attributeName="transform" type="rotate" dur="1s"
          values="0 7 7;360 7 7" repeatCount="indefinite" /></path>
</svg>
