<svg viewBox="0 0 142 34" fill="none" xmlns="http://www.w3.org/2000/svg"
  class="w-[8.875rem] h-[2.125rem]">
  <path id="Union" fill-rule="evenodd" clip-rule="evenodd"
    d="M63.4888 19.7015C64.9999 28.9696 73.6431 35.2734 82.7939 33.7814C91.9447 32.2894 98.1379 23.5666 96.6268 14.2985C95.1156 5.03038 86.4724 -1.27341 77.3216 0.218595C68.1708 1.7106 61.9777 10.4334 63.4888 19.7015ZM68.525 18.8804C67.4731 12.4293 71.7839 6.35782 78.1533 5.31932C84.5227 4.28081 90.5388 8.66856 91.5906 15.1196C92.6424 21.5707 88.3317 27.6422 81.9623 28.6807C75.5929 29.7192 69.5768 25.3314 68.525 18.8804ZM59.1823 0.220212L47.5213 33.7958H40.9869L29.2656 0.220212H35.2474L44.2541 27.2141L53.1559 0.220212H59.1823ZM0 0.103025H23.2446V5.26849H0V0.103025ZM23.2446 28.5132H0V33.6786H23.2446V28.5132ZM0 14.3101H16.7878V19.4755H0V14.3101ZM121.761 15.0985C121.761 11.3865 119.528 9.12446 116.135 9.12446C114.105 9.12446 112.51 9.87846 111.437 11.5895V9.50146H108.914V24.0015H111.437V16.3165C111.437 12.8945 113.322 11.5315 115.642 11.5315C117.875 11.5315 119.238 12.8655 119.238 15.2435V24.0015H121.761V15.0985ZM141.312 9.50146H138.818V11.9955C137.658 10.2265 135.802 9.12446 133.366 9.12446C129.248 9.12446 125.971 12.4595 125.971 16.6645C125.971 20.8985 129.248 24.2335 133.366 24.2335C135.802 24.2335 137.658 23.1025 138.818 21.3335V23.3925C138.818 26.1185 136.991 27.8295 133.975 27.8295C131.133 27.8295 129.915 26.7565 129.248 25.3935L127.044 26.6405C128.233 28.9315 130.669 30.1785 133.917 30.1785C137.687 30.1785 141.312 27.9165 141.312 23.3925V9.50146ZM138.818 16.6645C138.818 19.5935 136.585 21.8265 133.656 21.8265C130.727 21.8265 128.494 19.5935 128.494 16.6645C128.494 13.7645 130.727 11.5315 133.656 11.5315C136.585 11.5315 138.818 13.7645 138.818 16.6645Z"
    class="fill-[#2298FF] group-[.error]:fill-[#F83068] transition-colors"></path>
</svg>