<svg width="18" height="18" viewBox="0 0 18 18" fill="none" xmlns="http://www.w3.org/2000/svg">
<path opacity="0.3" fill-rule="evenodd" clip-rule="evenodd" d="M9 16.4998C13.1421 16.4998 16.5 13.1419 16.5 8.99976C16.5 4.85762 13.1421 1.49976 9 1.49976C4.85786 1.49976 1.5 4.85762 1.5 8.99976C1.5 13.1419 4.85786 16.4998 9 16.4998Z" fill="#37C4A2"/>
<path d="M12.5767 5.86326C12.8593 5.56045 13.3339 5.54409 13.6368 5.82671C13.9396 6.10934 13.9559 6.58393 13.6733 6.88674L8.4233 12.5117C8.1491 12.8055 7.69205 12.831 7.38692 12.5694L4.76192 10.3194C4.44743 10.0499 4.411 9.5764 4.68057 9.26191C4.95014 8.94742 5.42361 8.91099 5.73811 9.18056L7.81726 10.9627L12.5767 5.86326Z" fill="#37C4A2"/>
</svg>
