<svg viewBox="0 0 20 20" fill="none" xmlns="http://www.w3.org/2000/svg"
  class="w-5 h-5 [&>path]:transition-colors">
    <path
      d="M17.68 5.21c.426.426.433 1.114.016 1.548l-6.841 7.124a1.106 1.106 0 01-.775.34l-2.878.06.06-2.89c.007-.286.123-.559.326-.76l6.997-6.957a1.106 1.106 0 011.562.002L17.68 5.21z"
      class="fill-[#2F71A1] group-hover:fill-[#3e7df9] group-active:fill-[#148EF8]" />
    <path
      d="M10.871 2.876a.768.768 0 110 1.536H5.572c-.848 0-1.536.688-1.536 1.536v9.216c0 .848.688 1.536 1.536 1.536h9.216c.848 0 1.536-.688 1.536-1.536v-3.84a.768.768 0 111.536 0v3.84a3.072 3.072 0 01-3.072 3.072H5.572A3.072 3.072 0 012.5 15.164V5.948a3.072 3.072 0 013.072-3.072h5.3z"
      class="fill-[#2F71A1] group-hover:fill-[#3e7df9] group-active:fill-[#148EF8]" />
</svg>