<svg viewBox="0 0 505.485 511.994" xmlns="http://www.w3.org/2000/svg" class="w-20 fill-[#148ef8]">
   <path
     d="M333.636 269.874c-18.795 0-36.45 7.308-49.698 20.575-13.276 13.267-20.593 30.912-20.593 49.698 0 18.768 7.307 36.422 20.593 49.707 13.276 13.267 30.92 20.574 49.698 20.574 18.769 0 36.422-7.307 49.698-20.574 13.276-13.286 20.584-30.939 20.584-49.707 0-18.778-7.307-36.43-20.574-49.689-13.268-13.276-30.922-20.584-49.708-20.584zM374.84 381.35c-11.011 11.003-25.636 17.061-41.204 17.061-15.56 0-30.202-6.058-41.204-17.06-11.011-11.003-17.07-25.636-17.07-41.204 0-15.568 6.058-30.202 17.07-41.195 11.002-11.01 25.645-17.069 41.204-17.069 15.568 0 30.193 6.058 41.204 17.07 11.002 10.992 17.06 25.626 17.06 41.194 0 15.568-6.058 30.201-17.06 41.203z" />
   <path
     d="M356.67 502.296l5.428-37.455a6.218 6.218 0 013.838-5.277l29.294-12.134c2.175-.908 4.656-.53 6.436 1.006l30.103 22.4c4.18 3.57 10.392 3.335 14.274-.556l17.726-17.726a10.461 10.461 0 003.083-7.433c0-2.427-.836-4.863-2.526-6.832l-22.41-30.112a6.214 6.214 0 01-1.015-6.426l12.153-29.312a6.25 6.25 0 015.268-3.838l37.455-5.438c5.484-.422 9.708-4.989 9.708-10.472v-25.078a10.51 10.51 0 00-9.708-10.48l-37.455-5.448a6.23 6.23 0 01-5.276-3.829l-12.144-29.312a6.347 6.347 0 01-.476-2.39c0-1.456.512-2.895 1.492-4.045l22.4-30.094a10.467 10.467 0 002.535-6.822 10.52 10.52 0 00-3.092-7.452l-17.717-17.726a10.53 10.53 0 00-14.274-.557l-30.103 22.4a6.237 6.237 0 01-6.436 1.016l-29.303-12.144a6.184 6.184 0 01-3.83-5.258l-5.437-37.474a10.524 10.524 0 00-10.49-9.689h-25.06c-5.502 0-10.068 4.225-10.498 9.69l-5.43 37.473a6.224 6.224 0 01-3.838 5.258l-29.311 12.144a6.224 6.224 0 01-6.436-1.016l-30.103-22.4c-4.161-3.559-10.382-3.326-14.265.557l-17.726 17.726a10.504 10.504 0 00-3.082 7.443c0 2.427.836 4.863 2.526 6.832l22.409 30.094a6.225 6.225 0 011.483 4.045c0 .81-.152 1.617-.476 2.39l-12.146 29.31a6.218 6.218 0 01-5.276 3.838l-37.456 5.438c-5.464.422-9.698 4.99-9.698 10.481v25.078c0 5.492 4.234 10.05 9.698 10.481l37.456 5.43a6.253 6.253 0 015.276 3.837l12.144 29.312c.324.773.476 1.581.476 2.39a6.208 6.208 0 01-1.483 4.045l-22.41 30.103a10.464 10.464 0 00-2.525 6.832c0 2.697 1.034 5.393 3.082 7.433l17.726 17.726c3.883 3.9 10.104 4.125 14.265.556l30.103-22.4c1.78-1.509 4.279-1.914 6.436-1.006l29.31 12.134a6.262 6.262 0 013.839 5.277l5.43 37.455c.43 5.474 4.997 9.7 10.48 9.7h25.078c5.494 0 10.06-4.225 10.5-9.699zm-34.246-2.319l-5.304-36.574c-.71-6.643-4.944-12.324-11.182-14.939l-29.266-12.126c-6.22-2.598-13.25-1.582-18.481 2.633l-29.402 21.88-15.855-15.857 21.878-29.392a18.254 18.254 0 004.054-11.46c0-2.437-.485-4.809-1.402-6.985l-12.152-29.339c-2.59-6.21-8.278-10.444-14.93-11.155l-36.574-5.302v-22.418l36.565-5.312c6.652-.7 12.35-4.926 14.957-11.173l12.117-29.276a17.984 17.984 0 001.42-7.028 18.31 18.31 0 00-4.044-11.443l-21.887-29.41 15.855-15.848 29.402 21.87c5.232 4.224 12.27 5.24 18.446 2.652l29.248-12.117c6.256-2.553 10.517-8.252 11.236-14.94l5.304-36.592h22.436l5.303 36.575c.7 6.714 4.98 12.422 11.164 14.93l29.267 12.125a18.121 18.121 0 0018.48-2.633l29.41-21.879 15.857 15.865-21.878 29.383a18.226 18.226 0 00-2.661 18.453l12.144 29.303a18.142 18.142 0 0014.948 11.173l36.566 5.321v22.418l-36.584 5.302c-6.67.72-12.37 4.972-14.921 11.173l-12.153 29.312a18.25 18.25 0 00-1.393 6.984 18.26 18.26 0 004.054 11.47l21.878 29.392-15.856 15.856-29.375-21.86a18.068 18.068 0 00-18.471-2.66l-29.312 12.134c-6.22 2.588-10.462 8.288-11.164 14.948l-5.303 36.565h-22.44z">
      <animateTransform attributeName="transform" attributeType="XML" type="rotate"
        from="0 333.55 340.15" to="360 333.55 340.15" dur="5s" repeatCount="indefinite" />
   </path>
   <path
     d="M167.4 260.418l18.464-6.742a8.245 8.245 0 005.123-9.96l-6.066-29.05a4.923 4.923 0 011.41-4.926l18.329-16.826a4.861 4.861 0 013.29-1.276 5.08 5.08 0 011.716.296l28.198 8.423a8.263 8.263 0 0010.373-4.243l8.278-17.824c1.843-3.91.332-8.557-3.416-10.67l-24.584-16.144a4.864 4.864 0 01-2.472-4.476l1.06-24.853a4.91 4.91 0 012.842-4.233l26.138-14.076c3.928-1.78 5.807-6.292 4.332-10.328l-6.732-18.47c-1.214-3.337-4.378-5.43-7.776-5.42a8.328 8.328 0 00-2.193.305l-29.052 6.05a4.662 4.662 0 01-1.303.188c-1.348.01-2.661-.566-3.614-1.59l-16.808-18.32a4.82 4.82 0 01-.99-5.006l8.414-28.207a8.232 8.232 0 00-4.252-10.355L178.285 4.39a8.37 8.37 0 00-3.506-.773 8.26 8.26 0 00-7.154 4.206l-16.153 24.593a4.914 4.914 0 01-4.243 2.48h-.215l-24.863-1.078c-1.834-.09-3.488-1.195-4.242-2.858L103.843 4.836A8.236 8.236 0 0096.3 0c-.926 0-1.87.162-2.786.494l-18.463 6.75c-4.054 1.475-6.283 5.807-5.114 9.951l6.058 29.06a4.876 4.876 0 01-1.411 4.908L56.257 67.99a4.92 4.92 0 01-3.3 1.295 4.848 4.848 0 01-1.725-.324l-28.188-8.395a8.13 8.13 0 00-2.921-.539 8.28 8.28 0 00-7.442 4.764L4.4 82.624c-1.833 3.901-.332 8.54 3.417 10.67l24.584 16.152a4.81 4.81 0 012.47 4.441l-1.06 24.871c-.071 1.834-1.195 3.461-2.85 4.234L4.826 157.068c-3.92 1.78-5.798 6.283-4.324 10.32l6.733 18.47a8.284 8.284 0 007.784 5.438 8.362 8.362 0 002.175-.323l29.069-6.058c.423-.117.854-.18 1.277-.18 1.357 0 2.678.558 3.622 1.582l16.818 18.337a4.871 4.871 0 01.989 5.016l-8.414 28.188a8.269 8.269 0 004.252 10.374l17.815 8.286a8.433 8.433 0 003.514.773c2.886-.018 5.654-1.537 7.146-4.197l16.153-24.584c.862-1.528 2.463-2.482 4.197-2.482h.27l24.854 1.07a4.89 4.89 0 014.252 2.85l14.067 26.138a8.282 8.282 0 007.55 4.827 8.424 8.424 0 002.777-.495zm-13.68-35.927a16.783 16.783 0 00-14.454-9.394l-24.763-1.06c-.306-.018-.611-.036-.917-.036a16.99 16.99 0 00-14.338 8.108L84.724 244.23l-11.883-5.528 7.569-25.32c1.986-5.888.628-12.315-3.57-16.846l-16.79-18.309a16.88 16.88 0 00-12.557-5.502c-1.33 0-2.661.162-3.946.486l-26.148 5.447-4.477-12.297 23.514-12.656c5.564-2.777 9.15-8.288 9.376-14.444l1.07-24.799c.296-6.22-2.805-12.009-8.117-15.227L16.67 84.727l5.519-11.883 25.357 7.568c1.762.594 3.595.881 5.465.881a16.882 16.882 0 0011.37-4.458l18.275-16.773c4.629-4.206 6.535-10.498 5.034-16.539l-5.438-26.12 12.296-4.495 12.646 23.513c2.75 5.547 8.234 9.133 14.446 9.393l24.889 1.08.746.017a16.995 16.995 0 0014.39-8.126l14.527-22.12 11.883 5.526-7.56 25.304c-2.013 5.896-.664 12.314 3.56 16.862l16.817 18.328a16.851 16.851 0 0012.512 5.483 18.048 18.048 0 003.99-.476l26.122-5.456 4.476 12.305-23.524 12.674c-5.491 2.733-9.07 8.18-9.375 14.418l-1.07 24.781c-.297 6.23 2.805 12.018 8.126 15.254l22.085 14.516-5.52 11.892-25.347-7.577a16.806 16.806 0 00-5.474-.88 16.844 16.844 0 00-11.362 4.44l-18.346 16.835a16.9 16.9 0 00-4.97 16.485l5.456 26.138-12.306 4.477z">
      <animateTransform attributeName="transform" attributeType="XML" type="rotate"
        from="360 130.5 130.5" to="0 130.5 130.5" dur="5s" repeatCount="indefinite" />
   </path>
   <path
     d="M182.78 154.802c6.499-13.987 7.173-29.663 1.888-44.135-5.294-14.48-15.891-26.04-29.842-32.52-7.792-3.64-16.062-5.466-24.575-5.43-6.651.027-13.231 1.213-19.56 3.524-14.497 5.285-26.056 15.883-32.555 29.86-6.5 13.96-7.173 29.626-1.897 44.134 5.304 14.49 15.91 26.05 29.86 32.53 7.785 3.622 16.054 5.455 24.566 5.42 6.66-.036 13.24-1.222 19.578-3.524 14.462-5.284 26.012-15.89 32.537-29.859zm-36.664 18.57a45.589 45.589 0 01-15.505 2.787c-6.634.036-13.25-1.403-19.442-4.288-11.065-5.15-19.442-14.302-23.64-25.762-4.17-11.478-3.65-23.882 1.5-34.939 5.152-11.074 14.31-19.469 25.77-23.639a45.466 45.466 0 0115.507-2.796c6.634-.028 13.24 1.411 19.433 4.297 11.056 5.15 19.45 14.301 23.64 25.761 4.18 11.47 3.648 23.865-1.493 34.94-5.168 11.064-14.31 19.451-25.77 23.64z" />
</svg>