<svg width="36" height="25" fill="none" xmlns="http://www.w3.org/2000/svg">
    <path
      d="M0 20.867A3.867 3.867 0 013.867 17c.073 0 .133.06.133.133V24a1 1 0 01-1 1H.267A.267.267 0 010 24.733v-3.866zM8 15.96A3.96 3.96 0 0111.96 12a.04.04 0 01.04.04V24a1 1 0 01-1 1H8.133A.133.133 0 018 24.867V15.96zM16 11.96A3.96 3.96 0 0119.96 8a.04.04 0 01.04.04V24a1 1 0 01-1 1h-2.83a.17.17 0 01-.17-.17V11.96zM24 7.967A3.967 3.967 0 0127.967 4c.018 0 .033.015.033.033V24a1 1 0 01-1 1h-2.828a.172.172 0 01-.172-.172V7.968zM32 3.96A3.96 3.96 0 0135.96 0a.04.04 0 01.04.04V24a1 1 0 01-1 1h-2.755a.245.245 0 01-.245-.245V3.96z"
      class="fill-[#1c4972]" />
</svg>