<svg viewBox="0 0 18 18" fill="none" xmlns="http://www.w3.org/2000/svg"
  class="w-[1.375rem] h-[1.375rem] [&>*]:transition-opacity">
    <rect x="11.25" y="8.25" width="1.5" height="9" rx=".75" transform="rotate(90 11.25 8.25)"
      class="fill-[#ADEBFF] opacity-20 group-hover:opacity-30 group-active:opacity-30" />
    <path
      d="M7.505 5.25a.75.75 0 11-1.5 0V4.5a3 3 0 012.999-3H13.5a3 3 0 012.999 3v9a3 3 0 01-2.999 3H9A3 3 0 016 13.5v-.75a.75.75 0 111.5 0v.75A1.5 1.5 0 008.998 15H13.5a1.5 1.5 0 001.5-1.5v-9A1.5 1.5 0 0013.5 3H9.004a1.5 1.5 0 00-1.5 1.5v.75z"
      class="fill-[#ADEBFF] opacity-20 group-hover:opacity-30 group-active:opacity-30" />
    <path
      d="M9.22 7.28a.75.75 0 011.06-1.06l2.25 2.25a.75.75 0 010 1.06l-2.25 2.25a.75.75 0 01-1.06-1.06L10.94 9 9.22 7.28z"
      class="fill-[#ADEBFF] opacity-70 group-hover:opacity-100 group-active:opacity-100" />
</svg>