<svg viewBox="0 0 34 34" fill="none" xmlns="http://www.w3.org/2000/svg"
  class="w-[2.125rem] h-[2.125rem] [&>circle]:transition-colors">
  <circle id="Ellipse 1730" cx="3.92303" cy="3.92303" r="3.92303"
    transform="matrix(-1 0 0 1 7.84766 26.1523)"
    class="fill-[#45D2FF] group-[.error]:fill-[#F83068] group-[.off]:fill-[#193e60]"></circle>
  <circle id="Ellipse 1731" cx="3.92303" cy="3.92303" r="3.92303"
    transform="matrix(-1 0 0 1 20.9211 13.0752)"
    class="fill-[#2298FF] group-[.error]:fill-[#F83068] group-[.off]:fill-[#193e60]"></circle>
  <circle id="Ellipse 1732" cx="3.92303" cy="3.92303" r="3.92303"
    transform="matrix(-1 0 0 1 34 26.1523)"
    class="fill-[#1C60E5] group-[.error]:fill-[#F83068] group-[.off]:fill-[#193e60]">
  </circle>
  <circle id="Ellipse 1733" cx="3.92303" cy="3.92303" r="3.92303"
    transform="matrix(-1 0 0 1 20.9219 26.1523)"
    class="fill-[#2298FF] group-[.error]:fill-[#F83068] group-[.off]:fill-[#193e60]"></circle>
  <circle id="Ellipse 1734" cx="3.92303" cy="3.92303" r="3.92303"
    transform="matrix(-1 0 0 1 33.9998 13.0752)"
    class="fill-[#1C60E5] group-[.error]:fill-[#F83068] group-[.off]:fill-[#193e60]"></circle>
  <circle id="Ellipse 1735" cx="3.92303" cy="3.92303" r="3.92303"
    transform="matrix(-1 0 0 1 7.84766 0)"
    class="fill-[#45D2FF] group-[.error]:fill-[#F83068] group-[.off]:fill-[#193e60]">
  </circle>
  <circle id="Ellipse 1736" cx="3.92303" cy="3.92303" r="3.92303"
    transform="matrix(-1 0 0 1 20.9211 0)"
    class="fill-[#2298FF] group-[.error]:fill-[#F83068] group-[.off]:fill-[#193e60]">
  </circle>
  <circle id="Ellipse 1737" cx="3.92303" cy="3.92303" r="3.92303"
    transform="matrix(-1 0 0 1 33.9998 0)"
    class="fill-[#1C60E5] group-[.error]:fill-[#F83068] group-[.off]:fill-[#193e60]">
  </circle>
</svg>