<svg xmlns="http://www.w3.org/2000/svg" width="19" height="19" viewBox="0 0 19 19" fill="none">
<path d="M11.3139 13.2265C11.0047 12.9173 11.0047 12.416 11.3139 12.1069C11.6231 11.7977 12.1243 11.7977 12.4335 12.1069L15.6002 15.2735C15.9093 15.5827 15.9093 16.084 15.6002 16.3931C15.291 16.7023 14.7897 16.7023 14.4806 16.3931L11.3139 13.2265Z" fill="#5183B1"/>
<path fill-rule="evenodd" clip-rule="evenodd" d="M3.16699 8.70963C3.16699 11.7702 5.64808 14.2513 8.70866 14.2513C11.7692 14.2513 14.2503 11.7702 14.2503 8.70963C14.2503 5.64906 11.7692 3.16797 8.70866 3.16797C5.64808 3.16797 3.16699 5.64906 3.16699 8.70963ZM12.6667 8.70833C12.6667 10.8945 10.8945 12.6667 8.70833 12.6667C6.52221 12.6667 4.75 10.8945 4.75 8.70833C4.75 6.52221 6.52221 4.75 8.70833 4.75C10.8945 4.75 12.6667 6.52221 12.6667 8.70833Z" fill="#5183B1"/>
</svg>