<svg width="18" height="18" viewBox="0 0 18 18" fill="none" xmlns="http://www.w3.org/2000/svg">
<path fill-rule="evenodd" clip-rule="evenodd" d="M9.00122 16.5012C4.85909 16.5012 1.50122 13.1434 1.50122 9.00122C1.50122 4.85909 4.85909 1.50122 9.00122 1.50122C11.0661 1.50122 12.9361 2.33568 14.2923 3.68576C13.9986 3.40494 13.5328 3.40894 13.244 3.69778L12.6803 4.26146C11.6645 3.47229 10.3883 3.00239 9.00239 3.00239C5.68868 3.00239 3.00239 5.68868 3.00239 9.00239C3.00239 10.3883 3.47229 11.6645 4.26146 12.6803L3.69802 13.2437C3.40513 13.5366 3.40513 14.0115 3.69802 14.3044C3.99092 14.5973 4.46579 14.5973 4.75868 14.3044L5.32182 13.7412C6.33805 14.5317 7.61525 15.0024 9.00239 15.0024C12.3161 15.0024 15.0024 12.3161 15.0024 9.00239C15.0024 7.61525 14.5317 6.33805 13.7412 5.32182L14.3046 4.75844C14.5935 4.4696 14.5975 4.0038 14.3166 3.71006C15.6667 5.06632 16.5012 6.93632 16.5012 9.00122C16.5012 13.1434 13.1434 16.5012 9.00122 16.5012ZM13.7412 5.32182C13.4332 4.92574 13.0765 4.56931 12.6803 4.26146L4.26146 12.6803C4.56931 13.0765 4.92574 13.4332 5.32182 13.7412L13.7412 5.32182ZM14.3166 3.71006C14.3086 3.70194 14.3005 3.69384 14.2923 3.68576C14.2965 3.68971 14.3006 3.69372 14.3046 3.69778C14.3087 3.70184 14.3127 3.70593 14.3166 3.71006Z" fill="#F83068"/>
</svg>
