<svg viewBox="0 0 24 24" fill="none" xmlns="http://www.w3.org/2000/svg" class="w-6 h-6">
  <path clip-rule="evenodd"
    d="M19.802 9.244a2.904 2.904 0 00-1.314-1 4.353 4.353 0 00-1.584-.314c-.66 0-1.26.12-1.8.36s-1.005.57-1.395.99a4.4 4.4 0 00-.9 1.476 5.221 5.221 0 00-.315 1.836c0 .696.102 1.332.306 1.908.204.576.495 1.07.873 1.485.378.414.83.735 1.359.963.528.228 1.122.342 1.782.342.684 0 1.29-.135 1.818-.405s.954-.627 1.278-1.071l1.818 1.278a5.825 5.825 0 01-2.07 1.647c-.816.39-1.77.585-2.862.585-.996 0-1.911-.165-2.745-.495a6.324 6.324 0 01-2.151-1.386 6.31 6.31 0 01-1.404-2.124c-.336-.822-.504-1.731-.504-2.727 0-1.02.177-1.941.53-2.763a6.153 6.153 0 011.459-2.097A6.473 6.473 0 0114.168 6.4a7.798 7.798 0 014.014-.351c.444.078.87.198 1.278.36.408.162.792.363 1.152.603.36.24.666.528.918.864l-1.728 1.368z"
    class="fill-[#4A779E] group-hover:fill-[#58b1ff] group-[.on]:fill-[#2B9BFF] transition-[fill,opacity]" />
  <path clip-rule="evenodd"
    d="M2.945 7.804A2.79 2.79 0 002.72 8.92c0 .396.075.768.225 1.116a2.92 2.92 0 001.539 1.539c.348.15.72.225 1.116.225a2.79 2.79 0 001.116-.225 2.92 2.92 0 001.539-1.539c.15-.348.225-.72.225-1.116a2.79 2.79 0 00-.225-1.116 2.92 2.92 0 00-1.539-1.539A2.79 2.79 0 005.6 6.04a2.79 2.79 0 00-1.116.225 2.92 2.92 0 00-1.539 1.539zm1.611 2.16a1.422 1.422 0 01-.432-1.044c0-.408.144-.756.432-1.044A1.422 1.422 0 015.6 7.444c.408 0 .756.144 1.044.432.288.288.432.636.432 1.044 0 .408-.144.756-.432 1.044a1.422 1.422 0 01-1.044.432c-.408 0-.756-.144-1.044-.432z"
    class="transition-[fill,opacity] fill-[#294968] group-hover:fill-[#58b1ff] group-[.on]:fill-[#2B9BFF]" />
</svg>