<svg viewBox="0 0 24 24" fill="none" xmlns="http://www.w3.org/2000/svg" class="w-6 h-6">
    <path clip-rule="evenodd" d="M11.604 6H20v2h-6v3.728h5.488v1.908H14V19h-2.396V6z"
      class="fill-[#4A779E] group-hover:fill-[#58b1ff] group-[.on]:fill-[#2B9BFF] transition-[fill,opacity]" />
    <path clip-rule="evenodd"
      d="M3.945 7.804A2.79 2.79 0 003.72 8.92c0 .396.075.768.225 1.116a2.92 2.92 0 001.539 1.539c.348.15.72.225 1.116.225a2.79 2.79 0 001.116-.225 2.92 2.92 0 001.539-1.539c.15-.348.225-.72.225-1.116a2.79 2.79 0 00-.225-1.116 2.92 2.92 0 00-1.539-1.539A2.79 2.79 0 006.6 6.04a2.79 2.79 0 00-1.116.225 2.92 2.92 0 00-1.539 1.539zm1.611 2.16a1.422 1.422 0 01-.432-1.044c0-.408.144-.756.432-1.044A1.422 1.422 0 016.6 7.444c.408 0 .756.144 1.044.432.288.288.432.636.432 1.044 0 .408-.144.756-.432 1.044a1.422 1.422 0 01-1.044.432c-.408 0-.756-.144-1.044-.432z"
      class="transition-[fill,opacity] fill-[#294968] group-hover:fill-[#58b1ff] group-[.on]:fill-[#2B9BFF]" />
</svg>